<svg xmlns="http://www.w3.org/2000/svg" width="32" height="32"><g id="surface1"><path style="stroke:none;fill-rule:nonzero;fill:#ffc843;fill-opacity:1" d="M13.047 5.488c0-.785.2-1.527.543-2.183L10.883.585a.328.328 0 0 0-.465 0L6.273 4.747a.335.335 0 0 0 0 .465l4.286 4.3a4.853 4.853 0 0 1 2.828-2.273 4.67 4.67 0 0 1-.34-1.75Zm0 0"/><path style="stroke:none;fill-rule:nonzero;fill:#ffb400;fill-opacity:1" d="M11.398 8.41 7.152 4.148a.343.343 0 0 1-.093-.187l-.786.785a.335.335 0 0 0 0 .465l4.286 4.3c.226-.406.511-.777.84-1.1Zm0 0"/><path style="stroke:none;fill-rule:nonzero;fill:#76ffd9;fill-opacity:1" d="M20.973 7.027c.5 0 .98.075 1.433.211a4.67 4.67 0 0 0 .34-1.75c0-2.625-2.172-4.75-4.851-4.75-2.676 0-4.848 2.125-4.848 4.75 0 .617.121 1.207.34 1.75.453-.136.933-.21 1.433-.21 1.168 0 2.239.406 3.075 1.077a4.881 4.881 0 0 1 3.078-1.078Zm0 0"/><path style="stroke:none;fill-rule:nonzero;fill:#5de0bf;fill-opacity:1" d="M14.82 7.027c.18 0 .36.008.535.028a4.614 4.614 0 0 1-.27-1.567c0-2.281 1.642-4.187 3.83-4.644a4.853 4.853 0 0 0-1.02-.106c-2.676 0-4.848 2.125-4.848 4.75 0 .617.121 1.207.34 1.75.453-.136.933-.21 1.433-.21Zm0 0"/><path style="stroke:none;fill-rule:nonzero;fill:#fff;fill-opacity:1" d="M16.125 11.781c0-1.48.688-2.804 1.77-3.676a4.87 4.87 0 0 0-3.075-1.078c-2.675 0-4.847 2.125-4.847 4.75 0 1.434.648 2.72 1.668 3.59a.238.238 0 0 1 .152-.058h5.934a4.697 4.697 0 0 1-1.602-3.528Zm0 0"/><path style="stroke:none;fill-rule:nonzero;fill:#e1eaf8;fill-opacity:1" d="M11.793 15.309h1.828a4.7 4.7 0 0 1-1.605-3.528c0-2.281 1.64-4.187 3.828-4.648a4.918 4.918 0 0 0-1.024-.106c-2.675 0-4.847 2.125-4.847 4.754 0 1.43.648 2.715 1.668 3.586a.238.238 0 0 1 .152-.058Zm0 0"/><path style="stroke:none;fill-rule:nonzero;fill:#ffc843;fill-opacity:1" d="M20.973 7.027c-2.68 0-4.848 2.125-4.848 4.754 0 1.399.617 2.656 1.598 3.528H24c.055 0 .11.023.148.058a4.702 4.702 0 0 0 1.672-3.586c0-2.629-2.172-4.754-4.847-4.754Zm0 0"/><path style="stroke:none;fill-rule:nonzero;fill:#ffb400;fill-opacity:1" d="M17.727 15.309h2.03a4.697 4.697 0 0 1-1.6-3.528c0-2.285 1.64-4.191 3.831-4.648a4.843 4.843 0 0 0-1.015-.106c-2.68 0-4.848 2.125-4.848 4.754 0 1.399.617 2.656 1.602 3.528Zm0 0"/><path style="stroke:none;fill-rule:nonzero;fill:#ffc843;fill-opacity:1" d="M23 17.984c-.484 0-.914-.308-1.125-.804a.17.17 0 0 0-.152-.106.168.168 0 0 0-.149.106c-.21.496-.644.804-1.125.804-.484 0-.914-.308-1.125-.804-.031-.063-.09-.106-.152-.106a.168.168 0 0 0-.149.106c-.21.496-.644.804-1.128.804-.48 0-.915-.308-1.125-.804a.168.168 0 0 0-.149-.106.17.17 0 0 0-.152.106c-.211.496-.64.804-1.125.804s-.914-.308-1.125-.804a.168.168 0 0 0-.149-.106.17.17 0 0 0-.152.106c-.211.496-.64.804-1.125.804-.086 0-.168-.007-.246-.027l5.23 13.426c.067.168.172.168.239 0l5.23-13.426c-.082.02-.164.027-.246.027Zm0 0"/><path style="stroke:none;fill-rule:nonzero;fill:#76ffd9;fill-opacity:1" d="M23 17.984c-.484 0-.914-.308-1.125-.804a.17.17 0 0 0-.152-.106.168.168 0 0 0-.149.106c-.21.496-.644.804-1.125.804-.484 0-.914-.308-1.125-.804-.031-.063-.09-.106-.152-.106a.168.168 0 0 0-.149.106c-.21.496-.644.804-1.128.804-.48 0-.915-.308-1.125-.804a.168.168 0 0 0-.149-.106.17.17 0 0 0-.152.106c-.211.496-.64.804-1.125.804s-.914-.308-1.125-.804a.168.168 0 0 0-.149-.106.17.17 0 0 0-.152.106c-.211.496-.64.804-1.125.804-.691 0-1.25-.636-1.25-1.418v-.972c0-.156.11-.285.25-.285H24c.137 0 .25.129.25.285v.972c0 .782-.559 1.418-1.25 1.418Zm0 0"/><path style="stroke:none;fill-rule:nonzero;fill:#ffb400;fill-opacity:1" d="M14.219 17.18a.168.168 0 0 0-.149-.106.17.17 0 0 0-.152.106c-.211.496-.64.804-1.125.804-.086 0-.168-.007-.246-.027l5.23 13.426c.067.168.172.168.239 0l.906-2.324-4.488-11.524a1.348 1.348 0 0 1-.215-.355Zm0 0"/><path style="stroke:none;fill-rule:nonzero;fill:#5de0bf;fill-opacity:1" d="M12.89 16.566v-.972c0-.156.114-.285.25-.285h-1.347c-.14 0-.25.129-.25.285v.972c0 .782.559 1.418 1.25 1.418.246 0 .477-.078.676-.222-.348-.254-.578-.696-.578-1.196Zm0 0"/><path style="stroke:none;fill-rule:nonzero;fill:#434c54;fill-opacity:1" d="M12.605 11.977a.637.637 0 0 0-.644-.63.636.636 0 0 0-.64.63c0 .347.288.628.64.628a.637.637 0 0 0 .644-.628ZM14.93 13.281a.634.634 0 0 0-.64-.629.636.636 0 0 0-.642.63c0 .347.29.628.641.628.356 0 .64-.281.64-.629ZM15.02 10.734a.634.634 0 0 0-.641-.629.634.634 0 0 0-.64.63c0 .347.284.628.64.628.355 0 .64-.281.64-.629ZM12.906 9.707a.634.634 0 0 0-.64-.629.634.634 0 0 0-.641.629c0 .348.285.629.64.629.356 0 .641-.281.641-.629Zm0 0"/><path style="stroke:none;fill-rule:nonzero;fill:#434c54;fill-opacity:1" d="M26.309 11.781a.49.49 0 1 0-.977 0 4.21 4.21 0 0 1-1.309 3.04H22.598a.49.49 0 1 0 0 .976h1.164v.77c0 .511-.344.93-.762.93-.285 0-.543-.196-.676-.509a.654.654 0 0 0-.601-.402.658.658 0 0 0-.602.402c-.133.313-.39.508-.672.508-.285 0-.543-.195-.676-.508a.654.654 0 0 0-.601-.402.654.654 0 0 0-.602.402c-.133.313-.39.508-.675.508-.282 0-.54-.195-.672-.508a.658.658 0 0 0-.602-.402.654.654 0 0 0-.601.402c-.133.313-.391.508-.676.508-.281 0-.543-.195-.676-.508a.65.65 0 0 0-1.2 0c-.132.313-.394.508-.675.508-.422 0-.762-.418-.762-.93v-.77h8.672a.488.488 0 0 0 0-.976h-2.785a4.207 4.207 0 0 1-1.305-3.039c0-2.351 1.953-4.265 4.36-4.265 1.785 0 3.418 1.093 4.062 2.722a.491.491 0 0 0 .914-.363 5.24 5.24 0 0 0-1.933-2.402 5.406 5.406 0 0 0-.993-.535c.137-.458.211-.946.211-1.45a5.08 5.08 0 0 0-.355-1.879.487.487 0 0 0-.633-.277.487.487 0 0 0-.277.633 4.233 4.233 0 0 1 .121 2.688 5.381 5.381 0 0 0-4.195.848 5.36 5.36 0 0 0-4.192-.849 4.233 4.233 0 0 1-.164-1.164c0-2.347 1.953-4.261 4.356-4.261 1.253 0 2.449.527 3.277 1.453a.492.492 0 0 0 .73-.657A5.39 5.39 0 0 0 17.895.246c-1.82 0-3.43.902-4.395 2.274L11.23.238a.822.822 0 0 0-1.16 0l-4.14 4.16c-.32.32-.32.84 0 1.157l4.035 4.05a5.17 5.17 0 0 0 1.094 5.887c-.004.035-.008.067-.008.102v.972c0 .813.469 1.508 1.125 1.782l5.144 13.215c.16.406.48.437.575.437.097 0 .418-.031.578-.438l5.144-13.214c.656-.274 1.125-.97 1.125-1.782v-.972c0-.035-.004-.067-.008-.102a5.17 5.17 0 0 0 1.575-3.71Zm-4.586 6.086c.222.262.504.45.82.543l-.09.23h-1.469v-.257c.286-.098.54-.278.739-.516Zm-.32 3.469h-.419V19.62h1.086Zm-2.098 5.39h-.918v-1.714h1.586Zm-3.485-1.714h1.586v1.715h-.918Zm1.594-5.39a.49.49 0 0 0 .961 0h1.629v1.714h-1.617v-.047a.49.49 0 0 0-.98 0v.047h-1.813V19.62Zm.973 4.41v-1.716h1.617v1.715Zm-.98 0h-1.813v-1.716h1.812Zm-2.79-2.696h-.226l-.668-1.715h.894Zm4.555-3.469c.223.266.512.453.832.547v.227h-1.617v-.243a1.7 1.7 0 0 0 .785-.53Zm-2.55 0a1.7 1.7 0 0 0 .784.531v.243h-1.812v-.188c.398-.058.758-.27 1.027-.586Zm-2.552 0c.153.184.34.332.547.434v.34H13.34l-.09-.23c.316-.095.598-.282.82-.544ZM13 3.407a4.93 4.93 0 0 0-.184.472l-.546.55-.903-.902.875-.882Zm-.73 2.413.332.336c.035.266.093.532.168.785-.22.09-.43.192-.633.309l-.649-.648Zm-1.473.086-.902-.902.78-.785.903.906Zm-.149-4.86.903.907-.875.879-.903-.906ZM9.082 2.622l.902.906-.78.782-.9-.907ZM6.734 4.977l.88-.88.898.907-.875.879Zm1.594 1.601.875-.883.902.907-.875.878Zm1.594 1.598.875-.883.527.531c-.316.27-.601.574-.844.91Zm1.848 6.644a4.21 4.21 0 0 1-1.31-3.039c0-1.797 1.142-3.332 2.747-3.96.04.312.309.55.637.55.355 0 .64-.281.64-.629a.547.547 0 0 0-.039-.21 4.406 4.406 0 0 1 2.672.629 5.23 5.23 0 0 0-.504.597.647.647 0 0 0-.539-.29.634.634 0 0 0-.64.63c0 .343.28.62.629.629a5.075 5.075 0 0 0-.43 2.05c0 1.133.367 2.184.992 3.043H11.77Zm5.101 12.887h.535v1.375Zm1.516 1.375v-1.375h.535Zm0 0"/><path style="stroke:none;fill-rule:nonzero;fill:#434c54;fill-opacity:1" d="M20.875 9.352a.488.488 0 0 0 0-.977h-.5a.488.488 0 0 0 0 .977ZM19.184 10.633a.492.492 0 0 0-.493-.488h-.5a.49.49 0 0 0 0 .98h.5c.27 0 .493-.219.493-.492ZM20.75 11.582h.5a.488.488 0 0 0 0-.977h-.5a.488.488 0 0 0 0 .977ZM23.492 11.852h-.496a.49.49 0 1 0 0 .976h.496a.49.49 0 1 0 0-.976ZM23.555 9.555h-.496a.49.49 0 1 0 0 .98h.496a.49.49 0 1 0 0-.98ZM19.066 13.223h.5c.27 0 .489-.22.489-.489a.49.49 0 0 0-.489-.492h-.5a.49.49 0 0 0 0 .98Zm0 0"/></g></svg>