<?xml version="1.0" encoding="UTF-8"?>
<svg xmlns="http://www.w3.org/2000/svg" xmlns:xlink="http://www.w3.org/1999/xlink" width="32px" height="32px" viewBox="0 0 32 32" version="1.1">
<g id="surface1">
<path style=" stroke:none;fill-rule:nonzero;fill:rgb(100%,78.431373%,26.27451%);fill-opacity:1;" d="M 13.046875 5.488281 C 13.046875 4.703125 13.246094 3.960938 13.589844 3.304688 L 10.882812 0.585938 C 10.753906 0.457031 10.546875 0.457031 10.417969 0.585938 L 6.273438 4.746094 C 6.148438 4.871094 6.148438 5.082031 6.273438 5.210938 L 10.558594 9.511719 C 11.160156 8.433594 12.171875 7.605469 13.386719 7.238281 C 13.167969 6.695312 13.046875 6.105469 13.046875 5.488281 Z M 13.046875 5.488281 "/>
<path style=" stroke:none;fill-rule:nonzero;fill:rgb(100%,70.588235%,0%);fill-opacity:1;" d="M 11.398438 8.410156 L 7.152344 4.148438 C 7.097656 4.09375 7.070312 4.027344 7.058594 3.960938 L 6.273438 4.746094 C 6.148438 4.871094 6.148438 5.082031 6.273438 5.210938 L 10.558594 9.511719 C 10.785156 9.105469 11.070312 8.734375 11.398438 8.410156 Z M 11.398438 8.410156 "/>
<path style=" stroke:none;fill-rule:nonzero;fill:rgb(46.27451%,100%,85.098039%);fill-opacity:1;" d="M 20.972656 7.027344 C 21.472656 7.027344 21.953125 7.101562 22.40625 7.238281 C 22.625 6.695312 22.746094 6.105469 22.746094 5.488281 C 22.746094 2.863281 20.574219 0.738281 17.894531 0.738281 C 15.21875 0.738281 13.046875 2.863281 13.046875 5.488281 C 13.046875 6.105469 13.167969 6.695312 13.386719 7.238281 C 13.839844 7.101562 14.320312 7.027344 14.820312 7.027344 C 15.988281 7.027344 17.058594 7.433594 17.894531 8.105469 C 18.730469 7.429688 19.804688 7.027344 20.972656 7.027344 Z M 20.972656 7.027344 "/>
<path style=" stroke:none;fill-rule:nonzero;fill:rgb(36.470588%,87.843137%,74.901961%);fill-opacity:1;" d="M 14.820312 7.027344 C 15 7.027344 15.179688 7.035156 15.355469 7.054688 C 15.179688 6.566406 15.085938 6.039062 15.085938 5.488281 C 15.085938 3.207031 16.726562 1.300781 18.914062 0.84375 C 18.585938 0.773438 18.246094 0.738281 17.894531 0.738281 C 15.21875 0.738281 13.046875 2.863281 13.046875 5.488281 C 13.046875 6.105469 13.167969 6.695312 13.386719 7.238281 C 13.839844 7.101562 14.320312 7.027344 14.820312 7.027344 Z M 14.820312 7.027344 "/>
<path style=" stroke:none;fill-rule:nonzero;fill:rgb(100%,100%,100%);fill-opacity:1;" d="M 16.125 11.78125 C 16.125 10.300781 16.8125 8.976562 17.894531 8.105469 C 17.058594 7.429688 15.988281 7.027344 14.820312 7.027344 C 12.144531 7.027344 9.972656 9.152344 9.972656 11.777344 C 9.972656 13.210938 10.621094 14.496094 11.640625 15.367188 C 11.683594 15.332031 11.734375 15.308594 11.792969 15.308594 L 17.726562 15.308594 C 16.742188 14.4375 16.125 13.179688 16.125 11.78125 Z M 16.125 11.78125 "/>
<path style=" stroke:none;fill-rule:nonzero;fill:rgb(88.235294%,91.764706%,97.254902%);fill-opacity:1;" d="M 11.792969 15.308594 L 13.621094 15.308594 C 12.636719 14.4375 12.015625 13.179688 12.015625 11.78125 C 12.015625 9.5 13.65625 7.59375 15.84375 7.132812 C 15.511719 7.0625 15.171875 7.027344 14.820312 7.027344 C 12.144531 7.027344 9.972656 9.152344 9.972656 11.78125 C 9.972656 13.210938 10.621094 14.496094 11.640625 15.367188 C 11.683594 15.332031 11.734375 15.308594 11.792969 15.308594 Z M 11.792969 15.308594 "/>
<path style=" stroke:none;fill-rule:nonzero;fill:rgb(100%,78.431373%,26.27451%);fill-opacity:1;" d="M 20.972656 7.027344 C 18.292969 7.027344 16.125 9.152344 16.125 11.78125 C 16.125 13.179688 16.742188 14.4375 17.722656 15.308594 L 24 15.308594 C 24.054688 15.308594 24.109375 15.332031 24.148438 15.367188 C 25.171875 14.496094 25.820312 13.210938 25.820312 11.78125 C 25.820312 9.152344 23.648438 7.027344 20.972656 7.027344 Z M 20.972656 7.027344 "/>
<path style=" stroke:none;fill-rule:nonzero;fill:rgb(100%,70.588235%,0%);fill-opacity:1;" d="M 17.726562 15.308594 L 19.757812 15.308594 C 18.773438 14.4375 18.15625 13.179688 18.15625 11.78125 C 18.15625 9.496094 19.796875 7.589844 21.988281 7.132812 C 21.660156 7.0625 21.320312 7.027344 20.972656 7.027344 C 18.292969 7.027344 16.125 9.152344 16.125 11.78125 C 16.125 13.179688 16.742188 14.4375 17.726562 15.308594 Z M 17.726562 15.308594 "/>
<path style=" stroke:none;fill-rule:nonzero;fill:rgb(100%,78.431373%,26.27451%);fill-opacity:1;" d="M 23 17.984375 C 22.515625 17.984375 22.085938 17.675781 21.875 17.179688 C 21.847656 17.117188 21.789062 17.074219 21.722656 17.074219 C 21.660156 17.074219 21.601562 17.117188 21.574219 17.179688 C 21.363281 17.675781 20.929688 17.984375 20.449219 17.984375 C 19.964844 17.984375 19.535156 17.675781 19.324219 17.179688 C 19.292969 17.117188 19.234375 17.074219 19.171875 17.074219 C 19.109375 17.074219 19.050781 17.117188 19.023438 17.179688 C 18.8125 17.675781 18.378906 17.984375 17.894531 17.984375 C 17.414062 17.984375 16.980469 17.675781 16.769531 17.179688 C 16.742188 17.117188 16.683594 17.074219 16.621094 17.074219 C 16.554688 17.074219 16.496094 17.117188 16.46875 17.179688 C 16.257812 17.675781 15.828125 17.984375 15.34375 17.984375 C 14.859375 17.984375 14.429688 17.675781 14.21875 17.179688 C 14.191406 17.117188 14.132812 17.074219 14.070312 17.074219 C 14.003906 17.074219 13.945312 17.117188 13.917969 17.179688 C 13.707031 17.675781 13.277344 17.984375 12.792969 17.984375 C 12.707031 17.984375 12.625 17.976562 12.546875 17.957031 L 17.777344 31.382812 C 17.84375 31.550781 17.949219 31.550781 18.015625 31.382812 L 23.246094 17.957031 C 23.164062 17.976562 23.082031 17.984375 23 17.984375 Z M 23 17.984375 "/>
<path style=" stroke:none;fill-rule:nonzero;fill:rgb(46.27451%,100%,85.098039%);fill-opacity:1;" d="M 23 17.984375 C 22.515625 17.984375 22.085938 17.675781 21.875 17.179688 C 21.847656 17.117188 21.789062 17.074219 21.722656 17.074219 C 21.660156 17.074219 21.601562 17.117188 21.574219 17.179688 C 21.363281 17.675781 20.929688 17.984375 20.449219 17.984375 C 19.964844 17.984375 19.535156 17.675781 19.324219 17.179688 C 19.292969 17.117188 19.234375 17.074219 19.171875 17.074219 C 19.109375 17.074219 19.050781 17.117188 19.023438 17.179688 C 18.8125 17.675781 18.378906 17.984375 17.894531 17.984375 C 17.414062 17.984375 16.980469 17.675781 16.769531 17.179688 C 16.742188 17.117188 16.683594 17.074219 16.621094 17.074219 C 16.554688 17.074219 16.496094 17.117188 16.46875 17.179688 C 16.257812 17.675781 15.828125 17.984375 15.34375 17.984375 C 14.859375 17.984375 14.429688 17.675781 14.21875 17.179688 C 14.191406 17.117188 14.132812 17.074219 14.070312 17.074219 C 14.003906 17.074219 13.945312 17.117188 13.917969 17.179688 C 13.707031 17.675781 13.277344 17.984375 12.792969 17.984375 C 12.101562 17.984375 11.542969 17.347656 11.542969 16.566406 L 11.542969 15.59375 C 11.542969 15.4375 11.652344 15.308594 11.792969 15.308594 L 24 15.308594 C 24.136719 15.308594 24.25 15.4375 24.25 15.59375 L 24.25 16.566406 C 24.25 17.347656 23.691406 17.984375 23 17.984375 Z M 23 17.984375 "/>
<path style=" stroke:none;fill-rule:nonzero;fill:rgb(100%,70.588235%,0%);fill-opacity:1;" d="M 14.21875 17.179688 C 14.191406 17.117188 14.132812 17.074219 14.070312 17.074219 C 14.003906 17.074219 13.945312 17.117188 13.917969 17.179688 C 13.707031 17.675781 13.277344 17.984375 12.792969 17.984375 C 12.707031 17.984375 12.625 17.976562 12.546875 17.957031 L 17.777344 31.382812 C 17.84375 31.550781 17.949219 31.550781 18.015625 31.382812 L 18.921875 29.058594 L 14.433594 17.535156 C 14.347656 17.433594 14.273438 17.3125 14.21875 17.179688 Z M 14.21875 17.179688 "/>
<path style=" stroke:none;fill-rule:nonzero;fill:rgb(36.470588%,87.843137%,74.901961%);fill-opacity:1;" d="M 12.890625 16.566406 L 12.890625 15.59375 C 12.890625 15.4375 13.003906 15.308594 13.140625 15.308594 L 11.792969 15.308594 C 11.652344 15.308594 11.542969 15.4375 11.542969 15.59375 L 11.542969 16.566406 C 11.542969 17.347656 12.101562 17.984375 12.792969 17.984375 C 13.039062 17.984375 13.269531 17.90625 13.46875 17.761719 C 13.121094 17.507812 12.890625 17.066406 12.890625 16.566406 Z M 12.890625 16.566406 "/>
<path style=" stroke:none;fill-rule:nonzero;fill:rgb(26.27451%,29.803922%,32.941176%);fill-opacity:1;" d="M 12.605469 11.976562 C 12.605469 11.628906 12.316406 11.347656 11.960938 11.347656 C 11.609375 11.347656 11.320312 11.628906 11.320312 11.976562 C 11.320312 12.324219 11.609375 12.605469 11.960938 12.605469 C 12.316406 12.605469 12.605469 12.324219 12.605469 11.976562 Z M 12.605469 11.976562 "/>
<path style=" stroke:none;fill-rule:nonzero;fill:rgb(26.27451%,29.803922%,32.941176%);fill-opacity:1;" d="M 14.929688 13.28125 C 14.929688 12.933594 14.644531 12.652344 14.289062 12.652344 C 13.9375 12.652344 13.648438 12.933594 13.648438 13.28125 C 13.648438 13.628906 13.9375 13.910156 14.289062 13.910156 C 14.644531 13.910156 14.929688 13.628906 14.929688 13.28125 Z M 14.929688 13.28125 "/>
<path style=" stroke:none;fill-rule:nonzero;fill:rgb(26.27451%,29.803922%,32.941176%);fill-opacity:1;" d="M 15.019531 10.734375 C 15.019531 10.386719 14.734375 10.105469 14.378906 10.105469 C 14.023438 10.105469 13.738281 10.386719 13.738281 10.734375 C 13.738281 11.082031 14.023438 11.363281 14.378906 11.363281 C 14.734375 11.363281 15.019531 11.082031 15.019531 10.734375 Z M 15.019531 10.734375 "/>
<path style=" stroke:none;fill-rule:nonzero;fill:rgb(26.27451%,29.803922%,32.941176%);fill-opacity:1;" d="M 12.90625 9.707031 C 12.90625 9.359375 12.621094 9.078125 12.265625 9.078125 C 11.910156 9.078125 11.625 9.359375 11.625 9.707031 C 11.625 10.054688 11.910156 10.335938 12.265625 10.335938 C 12.621094 10.335938 12.90625 10.054688 12.90625 9.707031 Z M 12.90625 9.707031 "/>
<path style=" stroke:none;fill-rule:nonzero;fill:rgb(26.27451%,29.803922%,32.941176%);fill-opacity:1;" d="M 26.308594 11.78125 C 26.308594 11.507812 26.089844 11.289062 25.820312 11.289062 C 25.550781 11.289062 25.332031 11.507812 25.332031 11.78125 C 25.332031 12.96875 24.828125 14.046875 24.023438 14.820312 C 24.015625 14.820312 24.007812 14.820312 24 14.820312 L 22.597656 14.820312 C 22.324219 14.820312 22.105469 15.039062 22.105469 15.308594 C 22.105469 15.578125 22.324219 15.796875 22.597656 15.796875 L 23.761719 15.796875 L 23.761719 16.566406 C 23.761719 17.078125 23.417969 17.496094 23 17.496094 C 22.714844 17.496094 22.457031 17.300781 22.324219 16.988281 C 22.21875 16.742188 21.984375 16.585938 21.722656 16.585938 C 21.464844 16.585938 21.226562 16.742188 21.121094 16.988281 C 20.988281 17.300781 20.730469 17.496094 20.449219 17.496094 C 20.164062 17.496094 19.90625 17.300781 19.773438 16.988281 C 19.667969 16.742188 19.433594 16.585938 19.171875 16.585938 C 18.910156 16.585938 18.675781 16.742188 18.570312 16.988281 C 18.4375 17.300781 18.179688 17.496094 17.894531 17.496094 C 17.613281 17.496094 17.355469 17.300781 17.222656 16.988281 C 17.117188 16.742188 16.878906 16.585938 16.621094 16.585938 C 16.359375 16.585938 16.125 16.742188 16.019531 16.988281 C 15.886719 17.300781 15.628906 17.496094 15.34375 17.496094 C 15.0625 17.496094 14.800781 17.300781 14.667969 16.988281 C 14.566406 16.742188 14.328125 16.585938 14.066406 16.585938 C 13.808594 16.585938 13.570312 16.742188 13.46875 16.988281 C 13.335938 17.300781 13.074219 17.496094 12.792969 17.496094 C 12.371094 17.496094 12.03125 17.078125 12.03125 16.566406 L 12.03125 15.796875 L 20.703125 15.796875 C 20.972656 15.796875 21.191406 15.578125 21.191406 15.308594 C 21.191406 15.039062 20.972656 14.820312 20.703125 14.820312 L 17.917969 14.820312 C 17.113281 14.046875 16.613281 12.96875 16.613281 11.78125 C 16.613281 9.429688 18.566406 7.515625 20.972656 7.515625 C 22.757812 7.515625 24.390625 8.609375 25.035156 10.238281 C 25.136719 10.488281 25.421875 10.613281 25.671875 10.511719 C 25.925781 10.414062 26.046875 10.128906 25.949219 9.875 C 25.5625 8.902344 24.894531 8.070312 24.015625 7.472656 C 23.703125 7.257812 23.371094 7.082031 23.023438 6.9375 C 23.160156 6.480469 23.234375 5.992188 23.234375 5.488281 C 23.234375 4.84375 23.117188 4.210938 22.878906 3.609375 C 22.78125 3.355469 22.496094 3.234375 22.246094 3.332031 C 21.992188 3.429688 21.871094 3.714844 21.96875 3.964844 C 22.160156 4.453125 22.253906 4.964844 22.253906 5.488281 C 22.253906 5.894531 22.195312 6.28125 22.089844 6.652344 C 21.722656 6.578125 21.351562 6.535156 20.972656 6.535156 C 19.828125 6.535156 18.765625 6.894531 17.894531 7.5 C 17.027344 6.894531 15.964844 6.535156 14.820312 6.535156 C 14.4375 6.535156 14.066406 6.578125 13.703125 6.652344 C 13.597656 6.28125 13.539062 5.894531 13.539062 5.488281 C 13.539062 3.140625 15.492188 1.226562 17.894531 1.226562 C 19.148438 1.226562 20.34375 1.753906 21.171875 2.679688 C 21.351562 2.878906 21.664062 2.894531 21.863281 2.714844 C 22.066406 2.535156 22.082031 2.226562 21.902344 2.023438 C 20.886719 0.894531 19.429688 0.246094 17.894531 0.246094 C 16.074219 0.246094 14.464844 1.148438 13.5 2.519531 L 11.230469 0.238281 C 11.074219 0.0859375 10.871094 0 10.652344 0 C 10.429688 0 10.226562 0.0859375 10.070312 0.238281 L 5.929688 4.398438 C 5.609375 4.71875 5.609375 5.238281 5.929688 5.554688 L 9.964844 9.605469 C 9.65625 10.269531 9.484375 11.003906 9.484375 11.78125 C 9.484375 13.230469 10.085938 14.542969 11.058594 15.492188 C 11.054688 15.527344 11.050781 15.558594 11.050781 15.59375 L 11.050781 16.566406 C 11.050781 17.378906 11.519531 18.074219 12.175781 18.347656 L 17.320312 31.5625 C 17.480469 31.96875 17.800781 32 17.894531 32 C 17.992188 32 18.3125 31.96875 18.472656 31.5625 L 23.617188 18.347656 C 24.273438 18.074219 24.742188 17.378906 24.742188 16.566406 L 24.742188 15.59375 C 24.742188 15.558594 24.738281 15.527344 24.734375 15.492188 C 25.707031 14.542969 26.308594 13.230469 26.308594 11.78125 Z M 21.722656 17.867188 C 21.945312 18.128906 22.226562 18.316406 22.542969 18.410156 L 22.453125 18.640625 L 20.984375 18.640625 L 20.984375 18.382812 C 21.269531 18.285156 21.523438 18.105469 21.722656 17.867188 Z M 21.402344 21.335938 L 20.984375 21.335938 L 20.984375 19.621094 L 22.070312 19.621094 Z M 19.304688 26.726562 L 18.386719 26.726562 L 18.386719 25.011719 L 19.972656 25.011719 Z M 15.820312 25.011719 L 17.40625 25.011719 L 17.40625 26.726562 L 16.488281 26.726562 Z M 17.414062 19.621094 C 17.460938 19.847656 17.65625 20.015625 17.894531 20.015625 C 18.132812 20.015625 18.332031 19.847656 18.375 19.621094 L 20.003906 19.621094 L 20.003906 21.335938 L 18.386719 21.335938 L 18.386719 21.289062 C 18.386719 21.019531 18.167969 20.800781 17.894531 20.800781 C 17.625 20.800781 17.40625 21.019531 17.40625 21.289062 L 17.40625 21.335938 L 15.59375 21.335938 L 15.59375 19.621094 Z M 18.386719 24.03125 L 18.386719 22.316406 L 20.003906 22.316406 L 20.003906 24.03125 Z M 17.40625 24.03125 L 15.59375 24.03125 L 15.59375 22.316406 L 17.40625 22.316406 Z M 14.617188 21.335938 L 14.390625 21.335938 L 13.722656 19.621094 L 14.617188 19.621094 Z M 19.171875 17.867188 C 19.394531 18.132812 19.683594 18.320312 20.003906 18.414062 L 20.003906 18.640625 L 18.386719 18.640625 L 18.386719 18.398438 C 18.6875 18.300781 18.960938 18.121094 19.171875 17.867188 Z M 16.621094 17.867188 C 16.832031 18.121094 17.105469 18.300781 17.40625 18.398438 L 17.40625 18.640625 L 15.59375 18.640625 L 15.59375 18.453125 C 15.992188 18.394531 16.351562 18.183594 16.621094 17.867188 Z M 14.070312 17.867188 C 14.222656 18.050781 14.410156 18.199219 14.617188 18.300781 L 14.617188 18.640625 L 13.339844 18.640625 L 13.25 18.410156 C 13.566406 18.316406 13.847656 18.128906 14.070312 17.867188 Z M 13 3.40625 C 12.929688 3.558594 12.871094 3.71875 12.816406 3.878906 L 12.269531 4.429688 L 11.367188 3.527344 L 12.242188 2.644531 Z M 12.269531 5.820312 L 12.601562 6.15625 C 12.636719 6.421875 12.695312 6.6875 12.769531 6.941406 C 12.550781 7.03125 12.339844 7.132812 12.136719 7.25 L 11.488281 6.601562 Z M 10.796875 5.90625 L 9.894531 5.003906 L 10.675781 4.21875 L 11.578125 5.125 Z M 10.648438 1.046875 L 11.550781 1.953125 L 10.675781 2.832031 L 9.773438 1.925781 Z M 9.082031 2.621094 L 9.984375 3.527344 L 9.203125 4.308594 L 8.304688 3.402344 Z M 6.734375 4.976562 L 7.613281 4.097656 L 8.511719 5.003906 L 7.636719 5.882812 Z M 8.328125 6.578125 L 9.203125 5.695312 L 10.105469 6.601562 L 9.230469 7.480469 Z M 9.921875 8.175781 L 10.796875 7.292969 L 11.324219 7.824219 C 11.007812 8.09375 10.722656 8.398438 10.480469 8.734375 Z M 11.769531 14.820312 C 10.964844 14.046875 10.460938 12.96875 10.460938 11.78125 C 10.460938 9.984375 11.601562 8.449219 13.207031 7.820312 C 13.246094 8.132812 13.515625 8.371094 13.84375 8.371094 C 14.199219 8.371094 14.484375 8.089844 14.484375 7.742188 C 14.484375 7.667969 14.472656 7.597656 14.445312 7.53125 C 14.570312 7.523438 14.695312 7.515625 14.820312 7.515625 C 15.664062 7.515625 16.449219 7.753906 17.117188 8.160156 C 16.933594 8.347656 16.765625 8.546875 16.613281 8.757812 C 16.5 8.585938 16.300781 8.46875 16.074219 8.46875 C 15.71875 8.46875 15.433594 8.75 15.433594 9.097656 C 15.433594 9.441406 15.714844 9.71875 16.0625 9.726562 C 15.785156 10.355469 15.632812 11.050781 15.632812 11.777344 C 15.632812 12.910156 16 13.960938 16.625 14.820312 L 11.792969 14.820312 C 11.785156 14.820312 11.777344 14.820312 11.769531 14.820312 Z M 16.871094 27.707031 L 17.40625 27.707031 L 17.40625 29.082031 Z M 18.386719 29.082031 L 18.386719 27.707031 L 18.921875 27.707031 Z M 18.386719 29.082031 "/>
<path style=" stroke:none;fill-rule:nonzero;fill:rgb(26.27451%,29.803922%,32.941176%);fill-opacity:1;" d="M 20.875 9.351562 C 21.144531 9.351562 21.363281 9.132812 21.363281 8.863281 C 21.363281 8.59375 21.144531 8.375 20.875 8.375 L 20.375 8.375 C 20.105469 8.375 19.886719 8.59375 19.886719 8.863281 C 19.886719 9.132812 20.105469 9.351562 20.375 9.351562 Z M 20.875 9.351562 "/>
<path style=" stroke:none;fill-rule:nonzero;fill:rgb(26.27451%,29.803922%,32.941176%);fill-opacity:1;" d="M 19.183594 10.632812 C 19.183594 10.363281 18.960938 10.144531 18.691406 10.144531 L 18.191406 10.144531 C 17.921875 10.144531 17.703125 10.363281 17.703125 10.632812 C 17.703125 10.90625 17.921875 11.125 18.191406 11.125 L 18.691406 11.125 C 18.960938 11.125 19.183594 10.90625 19.183594 10.632812 Z M 19.183594 10.632812 "/>
<path style=" stroke:none;fill-rule:nonzero;fill:rgb(26.27451%,29.803922%,32.941176%);fill-opacity:1;" d="M 20.75 11.582031 L 21.25 11.582031 C 21.519531 11.582031 21.738281 11.363281 21.738281 11.09375 C 21.738281 10.824219 21.519531 10.605469 21.25 10.605469 L 20.75 10.605469 C 20.480469 10.605469 20.261719 10.824219 20.261719 11.09375 C 20.261719 11.363281 20.480469 11.582031 20.75 11.582031 Z M 20.75 11.582031 "/>
<path style=" stroke:none;fill-rule:nonzero;fill:rgb(26.27451%,29.803922%,32.941176%);fill-opacity:1;" d="M 23.492188 11.851562 L 22.996094 11.851562 C 22.722656 11.851562 22.503906 12.070312 22.503906 12.339844 C 22.503906 12.609375 22.722656 12.828125 22.996094 12.828125 L 23.492188 12.828125 C 23.765625 12.828125 23.984375 12.609375 23.984375 12.339844 C 23.984375 12.070312 23.765625 11.851562 23.492188 11.851562 Z M 23.492188 11.851562 "/>
<path style=" stroke:none;fill-rule:nonzero;fill:rgb(26.27451%,29.803922%,32.941176%);fill-opacity:1;" d="M 23.554688 9.554688 L 23.058594 9.554688 C 22.785156 9.554688 22.566406 9.773438 22.566406 10.042969 C 22.566406 10.316406 22.785156 10.535156 23.058594 10.535156 L 23.554688 10.535156 C 23.828125 10.535156 24.046875 10.316406 24.046875 10.042969 C 24.046875 9.773438 23.828125 9.554688 23.554688 9.554688 Z M 23.554688 9.554688 "/>
<path style=" stroke:none;fill-rule:nonzero;fill:rgb(26.27451%,29.803922%,32.941176%);fill-opacity:1;" d="M 19.066406 13.222656 L 19.566406 13.222656 C 19.835938 13.222656 20.054688 13.003906 20.054688 12.734375 C 20.054688 12.460938 19.835938 12.242188 19.566406 12.242188 L 19.066406 12.242188 C 18.796875 12.242188 18.578125 12.460938 18.578125 12.734375 C 18.578125 13.003906 18.796875 13.222656 19.066406 13.222656 Z M 19.066406 13.222656 "/>
</g>
</svg>
